<svg width="32" height="32" viewBox="0 0 32 32" fill="none" xmlns="http://www.w3.org/2000/svg">
<rect width="32" height="32" fill="#E1C22B"/>
<path d="M5.06839 25.5V25.2404C5.3972 25.2058 5.72602 25.05 6.05483 24.7731C6.40096 24.4789 6.72112 24.1155 7.01532 23.6829C7.30953 23.2502 7.5345 22.8262 7.69026 22.4109L14.5435 5.64126H14.7771L21.5265 22.4109C22.2879 24.2972 23.1359 25.2404 24.0705 25.2404H24.1483V25.5H15.8414V25.2404H15.9453C16.724 25.2404 17.2432 25.0068 17.5028 24.5395C17.7797 24.0549 17.7451 23.3887 17.399 22.5407L15.8414 18.6727H9.58528L8.13156 22.2811C7.82005 23.0252 7.85467 23.7002 8.2354 24.3059C8.63344 24.8943 9.26511 25.2058 10.1304 25.2404V25.5H5.06839ZM9.71507 18.3353H15.7116L12.7523 10.8591L9.71507 18.3353Z" fill="black"/>
<path d="M23.8057 12.3264C23.0529 12.6277 22.3307 12.742 21.6393 12.6694C20.9516 12.5879 20.3386 12.3383 19.8002 11.9205C19.2656 11.494 18.8514 10.9137 18.5576 10.1797C18.2639 9.44564 18.1646 8.74295 18.2599 8.0716C18.3589 7.39147 18.6305 6.78785 19.0746 6.26074C19.5225 5.72485 20.1228 5.30627 20.8757 5.00498C21.6285 4.70369 22.3488 4.59377 23.0365 4.67522C23.7279 4.74788 24.3409 4.99749 24.8755 5.42404C25.4139 5.84181 25.83 6.4177 26.1238 7.15173C26.4175 7.88576 26.5149 8.59284 26.4159 9.27297C26.3206 9.94432 26.049 10.5479 25.6012 11.0838C25.157 11.6109 24.5586 12.0251 23.8057 12.3264ZM23.7454 12.1758C24.0717 12.0453 24.3358 11.8413 24.5378 11.564C24.7397 11.2866 24.8765 10.9553 24.9479 10.5701C25.0131 10.1874 25.0093 9.75946 24.9364 9.2864C24.8698 8.81083 24.7311 8.30955 24.5202 7.78255C24.3093 7.25556 24.0639 6.79696 23.784 6.40676C23.5079 6.00777 23.2142 5.69223 22.9029 5.46014C22.5854 5.23056 22.2579 5.08505 21.9203 5.02362C21.5828 4.9622 21.2509 4.99676 20.9246 5.12732C20.5984 5.25787 20.3343 5.46183 20.1323 5.73918C19.9303 6.01653 19.7968 6.34658 19.7316 6.72931C19.6601 7.11456 19.6589 7.5481 19.728 8.02994C19.8009 8.503 19.9428 9.00303 20.1537 9.53002C20.3646 10.057 20.6068 10.5169 20.8805 10.9096C21.1603 11.2998 21.4591 11.6097 21.7766 11.8393C22.0878 12.0713 22.4122 12.2181 22.7498 12.2795C23.0873 12.341 23.4192 12.3064 23.7454 12.1758Z" fill="black"/>
</svg>
